<?xml version="1.0" encoding="utf-8" standalone="no"?>
<!DOCTYPE svg PUBLIC "-//W3C//DTD SVG 1.1//EN"
  "http://www.w3.org/Graphics/SVG/1.1/DTD/svg11.dtd">
<svg xmlns:xlink="http://www.w3.org/1999/xlink" width="460.8pt" height="345.6pt" viewBox="0 0 460.8 345.6" xmlns="http://www.w3.org/2000/svg" version="1.1">
 <metadata>
  <rdf:RDF xmlns:dc="http://purl.org/dc/elements/1.1/" xmlns:cc="http://creativecommons.org/ns#" xmlns:rdf="http://www.w3.org/1999/02/22-rdf-syntax-ns#">
   <cc:Work>
    <dc:type rdf:resource="http://purl.org/dc/dcmitype/StillImage"/>
    <dc:date>2022-01-21T09:16:08.100540</dc:date>
    <dc:format>image/svg+xml</dc:format>
    <dc:creator>
     <cc:Agent>
      <dc:title>Matplotlib v3.5.1, https://matplotlib.org/</dc:title>
     </cc:Agent>
    </dc:creator>
   </cc:Work>
  </rdf:RDF>
 </metadata>
 <defs>
  <style type="text/css">*{stroke-linejoin: round; stroke-linecap: butt}</style>
 </defs>
 <g id="figure_1">
  <g id="patch_1">
   <path d="M 0 345.6 
L 460.8 345.6 
L 460.8 0 
L 0 0 
z
" style="fill: #ffffff"/>
  </g>
  <g id="axes_1">
   <g id="patch_2">
    <path d="M 46.08 304.128 
L 448.3584 304.128 
L 448.3584 6.912 
L 46.08 6.912 
z
" style="fill: #ffffff"/>
   </g>
   <g id="matplotlib.axis_1">
    <g id="xtick_1">
     <g id="line2d_1">
      <path d="M 46.08 304.128 
L 46.08 6.912 
" clip-path="url(#p7ff1e4772f)" style="fill: none; stroke: #b0b0b0; stroke-width: 0.8; stroke-linecap: square"/>
     </g>
     <g id="line2d_2">
      <defs>
       <path id="m22d93af56d" d="M 0 0 
L 0 3.5 
" style="stroke: #000000; stroke-width: 0.8"/>
      </defs>
      <g>
       <use xlink:href="#m22d93af56d" x="46.08" y="304.128" style="stroke: #000000; stroke-width: 0.8"/>
      </g>
     </g>
     <g id="text_1">
      <!-- 0.90 -->
      <g transform="translate(33.83 320.84925)scale(0.14 -0.14)">
       <defs>
        <path id="TimesNewRomanPSMT-30" d="M 231 2094 
Q 231 2819 450 3342 
Q 669 3866 1031 4122 
Q 1313 4325 1613 4325 
Q 2100 4325 2488 3828 
Q 2972 3213 2972 2159 
Q 2972 1422 2759 906 
Q 2547 391 2217 158 
Q 1888 -75 1581 -75 
Q 975 -75 572 641 
Q 231 1244 231 2094 
z
M 844 2016 
Q 844 1141 1059 588 
Q 1238 122 1591 122 
Q 1759 122 1940 273 
Q 2122 425 2216 781 
Q 2359 1319 2359 2297 
Q 2359 3022 2209 3506 
Q 2097 3866 1919 4016 
Q 1791 4119 1609 4119 
Q 1397 4119 1231 3928 
Q 1006 3669 925 3112 
Q 844 2556 844 2016 
z
" transform="scale(0.015625)"/>
        <path id="TimesNewRomanPSMT-2e" d="M 800 606 
Q 947 606 1047 504 
Q 1147 403 1147 259 
Q 1147 116 1045 14 
Q 944 -88 800 -88 
Q 656 -88 554 14 
Q 453 116 453 259 
Q 453 406 554 506 
Q 656 606 800 606 
z
" transform="scale(0.015625)"/>
        <path id="TimesNewRomanPSMT-39" d="M 338 -88 
L 338 28 
Q 744 34 1094 217 
Q 1444 400 1770 856 
Q 2097 1313 2225 1859 
Q 1734 1544 1338 1544 
Q 891 1544 572 1889 
Q 253 2234 253 2806 
Q 253 3363 572 3797 
Q 956 4325 1575 4325 
Q 2097 4325 2469 3894 
Q 2925 3359 2925 2575 
Q 2925 1869 2578 1258 
Q 2231 647 1613 244 
Q 1109 -88 516 -88 
L 338 -88 
z
M 2275 2091 
Q 2331 2497 2331 2741 
Q 2331 3044 2228 3395 
Q 2125 3747 1936 3934 
Q 1747 4122 1506 4122 
Q 1228 4122 1018 3872 
Q 809 3622 809 3128 
Q 809 2469 1088 2097 
Q 1291 1828 1588 1828 
Q 1731 1828 1928 1897 
Q 2125 1966 2275 2091 
z
" transform="scale(0.015625)"/>
       </defs>
       <use xlink:href="#TimesNewRomanPSMT-30"/>
       <use xlink:href="#TimesNewRomanPSMT-2e" x="50"/>
       <use xlink:href="#TimesNewRomanPSMT-39" x="75"/>
       <use xlink:href="#TimesNewRomanPSMT-30" x="125"/>
      </g>
     </g>
    </g>
    <g id="xtick_2">
     <g id="line2d_3">
      <path d="M 126.53568 304.128 
L 126.53568 6.912 
" clip-path="url(#p7ff1e4772f)" style="fill: none; stroke: #b0b0b0; stroke-width: 0.8; stroke-linecap: square"/>
     </g>
     <g id="line2d_4">
      <g>
       <use xlink:href="#m22d93af56d" x="126.53568" y="304.128" style="stroke: #000000; stroke-width: 0.8"/>
      </g>
     </g>
     <g id="text_2">
      <!-- 0.92 -->
      <g transform="translate(114.28568 320.84925)scale(0.14 -0.14)">
       <defs>
        <path id="TimesNewRomanPSMT-32" d="M 2934 816 
L 2638 0 
L 138 0 
L 138 116 
Q 1241 1122 1691 1759 
Q 2141 2397 2141 2925 
Q 2141 3328 1894 3587 
Q 1647 3847 1303 3847 
Q 991 3847 742 3664 
Q 494 3481 375 3128 
L 259 3128 
Q 338 3706 661 4015 
Q 984 4325 1469 4325 
Q 1984 4325 2329 3994 
Q 2675 3663 2675 3213 
Q 2675 2891 2525 2569 
Q 2294 2063 1775 1497 
Q 997 647 803 472 
L 1909 472 
Q 2247 472 2383 497 
Q 2519 522 2628 598 
Q 2738 675 2819 816 
L 2934 816 
z
" transform="scale(0.015625)"/>
       </defs>
       <use xlink:href="#TimesNewRomanPSMT-30"/>
       <use xlink:href="#TimesNewRomanPSMT-2e" x="50"/>
       <use xlink:href="#TimesNewRomanPSMT-39" x="75"/>
       <use xlink:href="#TimesNewRomanPSMT-32" x="125"/>
      </g>
     </g>
    </g>
    <g id="xtick_3">
     <g id="line2d_5">
      <path d="M 206.99136 304.128 
L 206.99136 6.912 
" clip-path="url(#p7ff1e4772f)" style="fill: none; stroke: #b0b0b0; stroke-width: 0.8; stroke-linecap: square"/>
     </g>
     <g id="line2d_6">
      <g>
       <use xlink:href="#m22d93af56d" x="206.99136" y="304.128" style="stroke: #000000; stroke-width: 0.8"/>
      </g>
     </g>
     <g id="text_3">
      <!-- 0.94 -->
      <g transform="translate(194.74136 320.84925)scale(0.14 -0.14)">
       <defs>
        <path id="TimesNewRomanPSMT-34" d="M 2978 1563 
L 2978 1119 
L 2409 1119 
L 2409 0 
L 1894 0 
L 1894 1119 
L 100 1119 
L 100 1519 
L 2066 4325 
L 2409 4325 
L 2409 1563 
L 2978 1563 
z
M 1894 1563 
L 1894 3666 
L 406 1563 
L 1894 1563 
z
" transform="scale(0.015625)"/>
       </defs>
       <use xlink:href="#TimesNewRomanPSMT-30"/>
       <use xlink:href="#TimesNewRomanPSMT-2e" x="50"/>
       <use xlink:href="#TimesNewRomanPSMT-39" x="75"/>
       <use xlink:href="#TimesNewRomanPSMT-34" x="125"/>
      </g>
     </g>
    </g>
    <g id="xtick_4">
     <g id="line2d_7">
      <path d="M 287.44704 304.128 
L 287.44704 6.912 
" clip-path="url(#p7ff1e4772f)" style="fill: none; stroke: #b0b0b0; stroke-width: 0.8; stroke-linecap: square"/>
     </g>
     <g id="line2d_8">
      <g>
       <use xlink:href="#m22d93af56d" x="287.44704" y="304.128" style="stroke: #000000; stroke-width: 0.8"/>
      </g>
     </g>
     <g id="text_4">
      <!-- 0.96 -->
      <g transform="translate(275.19704 320.84925)scale(0.14 -0.14)">
       <defs>
        <path id="TimesNewRomanPSMT-36" d="M 2869 4325 
L 2869 4209 
Q 2456 4169 2195 4045 
Q 1934 3922 1679 3669 
Q 1425 3416 1258 3105 
Q 1091 2794 978 2366 
Q 1428 2675 1881 2675 
Q 2316 2675 2634 2325 
Q 2953 1975 2953 1425 
Q 2953 894 2631 456 
Q 2244 -75 1606 -75 
Q 1172 -75 869 213 
Q 275 772 275 1663 
Q 275 2231 503 2743 
Q 731 3256 1154 3653 
Q 1578 4050 1965 4187 
Q 2353 4325 2688 4325 
L 2869 4325 
z
M 925 2138 
Q 869 1716 869 1456 
Q 869 1156 980 804 
Q 1091 453 1309 247 
Q 1469 100 1697 100 
Q 1969 100 2183 356 
Q 2397 613 2397 1088 
Q 2397 1622 2184 2012 
Q 1972 2403 1581 2403 
Q 1463 2403 1327 2353 
Q 1191 2303 925 2138 
z
" transform="scale(0.015625)"/>
       </defs>
       <use xlink:href="#TimesNewRomanPSMT-30"/>
       <use xlink:href="#TimesNewRomanPSMT-2e" x="50"/>
       <use xlink:href="#TimesNewRomanPSMT-39" x="75"/>
       <use xlink:href="#TimesNewRomanPSMT-36" x="125"/>
      </g>
     </g>
    </g>
    <g id="xtick_5">
     <g id="line2d_9">
      <path d="M 367.90272 304.128 
L 367.90272 6.912 
" clip-path="url(#p7ff1e4772f)" style="fill: none; stroke: #b0b0b0; stroke-width: 0.8; stroke-linecap: square"/>
     </g>
     <g id="line2d_10">
      <g>
       <use xlink:href="#m22d93af56d" x="367.90272" y="304.128" style="stroke: #000000; stroke-width: 0.8"/>
      </g>
     </g>
     <g id="text_5">
      <!-- 0.98 -->
      <g transform="translate(355.65272 320.84925)scale(0.14 -0.14)">
       <defs>
        <path id="TimesNewRomanPSMT-38" d="M 1228 2134 
Q 725 2547 579 2797 
Q 434 3047 434 3316 
Q 434 3728 753 4026 
Q 1072 4325 1600 4325 
Q 2113 4325 2425 4047 
Q 2738 3769 2738 3413 
Q 2738 3175 2569 2928 
Q 2400 2681 1866 2347 
Q 2416 1922 2594 1678 
Q 2831 1359 2831 1006 
Q 2831 559 2490 242 
Q 2150 -75 1597 -75 
Q 994 -75 656 303 
Q 388 606 388 966 
Q 388 1247 577 1523 
Q 766 1800 1228 2134 
z
M 1719 2469 
Q 2094 2806 2194 3001 
Q 2294 3197 2294 3444 
Q 2294 3772 2109 3958 
Q 1925 4144 1606 4144 
Q 1288 4144 1088 3959 
Q 888 3775 888 3528 
Q 888 3366 970 3203 
Q 1053 3041 1206 2894 
L 1719 2469 
z
M 1375 2016 
Q 1116 1797 991 1539 
Q 866 1281 866 981 
Q 866 578 1086 336 
Q 1306 94 1647 94 
Q 1984 94 2187 284 
Q 2391 475 2391 747 
Q 2391 972 2272 1150 
Q 2050 1481 1375 2016 
z
" transform="scale(0.015625)"/>
       </defs>
       <use xlink:href="#TimesNewRomanPSMT-30"/>
       <use xlink:href="#TimesNewRomanPSMT-2e" x="50"/>
       <use xlink:href="#TimesNewRomanPSMT-39" x="75"/>
       <use xlink:href="#TimesNewRomanPSMT-38" x="125"/>
      </g>
     </g>
    </g>
    <g id="xtick_6">
     <g id="line2d_11">
      <path d="M 448.3584 304.128 
L 448.3584 6.912 
" clip-path="url(#p7ff1e4772f)" style="fill: none; stroke: #b0b0b0; stroke-width: 0.8; stroke-linecap: square"/>
     </g>
     <g id="line2d_12">
      <g>
       <use xlink:href="#m22d93af56d" x="448.3584" y="304.128" style="stroke: #000000; stroke-width: 0.8"/>
      </g>
     </g>
     <g id="text_6">
      <!-- 1.00 -->
      <g transform="translate(436.1084 320.84925)scale(0.14 -0.14)">
       <defs>
        <path id="TimesNewRomanPSMT-31" d="M 750 3822 
L 1781 4325 
L 1884 4325 
L 1884 747 
Q 1884 391 1914 303 
Q 1944 216 2037 169 
Q 2131 122 2419 116 
L 2419 0 
L 825 0 
L 825 116 
Q 1125 122 1212 167 
Q 1300 213 1334 289 
Q 1369 366 1369 747 
L 1369 3034 
Q 1369 3497 1338 3628 
Q 1316 3728 1258 3775 
Q 1200 3822 1119 3822 
Q 1003 3822 797 3725 
L 750 3822 
z
" transform="scale(0.015625)"/>
       </defs>
       <use xlink:href="#TimesNewRomanPSMT-31"/>
       <use xlink:href="#TimesNewRomanPSMT-2e" x="50"/>
       <use xlink:href="#TimesNewRomanPSMT-30" x="75"/>
       <use xlink:href="#TimesNewRomanPSMT-30" x="125"/>
      </g>
     </g>
    </g>
    <g id="text_7">
     <!-- Gate fidelity -->
     <g transform="translate(212.037638 337.565187)scale(0.14 -0.14)">
      <defs>
       <path id="TimesNewRomanPSMT-47" d="M 3928 4334 
L 4038 2997 
L 3928 2997 
Q 3763 3497 3500 3750 
Q 3122 4116 2528 4116 
Q 1719 4116 1297 3475 
Q 944 2934 944 2188 
Q 944 1581 1178 1081 
Q 1413 581 1792 348 
Q 2172 116 2572 116 
Q 2806 116 3025 175 
Q 3244 234 3447 350 
L 3447 1575 
Q 3447 1894 3398 1992 
Q 3350 2091 3248 2142 
Q 3147 2194 2891 2194 
L 2891 2313 
L 4531 2313 
L 4531 2194 
L 4453 2194 
Q 4209 2194 4119 2031 
Q 4056 1916 4056 1575 
L 4056 278 
Q 3697 84 3347 -6 
Q 2997 -97 2569 -97 
Q 1341 -97 703 691 
Q 225 1281 225 2053 
Q 225 2613 494 3125 
Q 813 3734 1369 4063 
Q 1834 4334 2469 4334 
Q 2700 4334 2889 4296 
Q 3078 4259 3425 4131 
Q 3600 4066 3659 4066 
Q 3719 4066 3761 4120 
Q 3803 4175 3813 4334 
L 3928 4334 
z
" transform="scale(0.015625)"/>
       <path id="TimesNewRomanPSMT-61" d="M 1822 413 
Q 1381 72 1269 19 
Q 1100 -59 909 -59 
Q 613 -59 420 144 
Q 228 347 228 678 
Q 228 888 322 1041 
Q 450 1253 767 1440 
Q 1084 1628 1822 1897 
L 1822 2009 
Q 1822 2438 1686 2597 
Q 1550 2756 1291 2756 
Q 1094 2756 978 2650 
Q 859 2544 859 2406 
L 866 2225 
Q 866 2081 792 2003 
Q 719 1925 600 1925 
Q 484 1925 411 2006 
Q 338 2088 338 2228 
Q 338 2497 613 2722 
Q 888 2947 1384 2947 
Q 1766 2947 2009 2819 
Q 2194 2722 2281 2516 
Q 2338 2381 2338 1966 
L 2338 994 
Q 2338 584 2353 492 
Q 2369 400 2405 369 
Q 2441 338 2488 338 
Q 2538 338 2575 359 
Q 2641 400 2828 588 
L 2828 413 
Q 2478 -56 2159 -56 
Q 2006 -56 1915 50 
Q 1825 156 1822 413 
z
M 1822 616 
L 1822 1706 
Q 1350 1519 1213 1441 
Q 966 1303 859 1153 
Q 753 1003 753 825 
Q 753 600 887 451 
Q 1022 303 1197 303 
Q 1434 303 1822 616 
z
" transform="scale(0.015625)"/>
       <path id="TimesNewRomanPSMT-74" d="M 1031 3803 
L 1031 2863 
L 1700 2863 
L 1700 2644 
L 1031 2644 
L 1031 788 
Q 1031 509 1111 412 
Q 1191 316 1316 316 
Q 1419 316 1516 380 
Q 1613 444 1666 569 
L 1788 569 
Q 1678 263 1478 108 
Q 1278 -47 1066 -47 
Q 922 -47 784 33 
Q 647 113 581 261 
Q 516 409 516 719 
L 516 2644 
L 63 2644 
L 63 2747 
Q 234 2816 414 2980 
Q 594 3144 734 3369 
Q 806 3488 934 3803 
L 1031 3803 
z
" transform="scale(0.015625)"/>
       <path id="TimesNewRomanPSMT-65" d="M 681 1784 
Q 678 1147 991 784 
Q 1303 422 1725 422 
Q 2006 422 2214 576 
Q 2422 731 2563 1106 
L 2659 1044 
Q 2594 616 2278 264 
Q 1963 -88 1488 -88 
Q 972 -88 605 314 
Q 238 716 238 1394 
Q 238 2128 614 2539 
Q 991 2950 1559 2950 
Q 2041 2950 2350 2633 
Q 2659 2316 2659 1784 
L 681 1784 
z
M 681 1966 
L 2006 1966 
Q 1991 2241 1941 2353 
Q 1863 2528 1708 2628 
Q 1553 2728 1384 2728 
Q 1125 2728 920 2526 
Q 716 2325 681 1966 
z
" transform="scale(0.015625)"/>
       <path id="TimesNewRomanPSMT-20" transform="scale(0.015625)"/>
       <path id="TimesNewRomanPSMT-66" d="M 1319 2638 
L 1319 756 
Q 1319 356 1406 250 
Q 1522 113 1716 113 
L 1975 113 
L 1975 0 
L 266 0 
L 266 113 
L 394 113 
Q 519 113 622 175 
Q 725 238 764 344 
Q 803 450 803 756 
L 803 2638 
L 247 2638 
L 247 2863 
L 803 2863 
L 803 3050 
Q 803 3478 940 3775 
Q 1078 4072 1361 4255 
Q 1644 4438 1997 4438 
Q 2325 4438 2600 4225 
Q 2781 4084 2781 3909 
Q 2781 3816 2700 3733 
Q 2619 3650 2525 3650 
Q 2453 3650 2373 3701 
Q 2294 3753 2178 3923 
Q 2063 4094 1966 4153 
Q 1869 4213 1750 4213 
Q 1606 4213 1506 4136 
Q 1406 4059 1362 3898 
Q 1319 3738 1319 3069 
L 1319 2863 
L 2056 2863 
L 2056 2638 
L 1319 2638 
z
" transform="scale(0.015625)"/>
       <path id="TimesNewRomanPSMT-69" d="M 928 4444 
Q 1059 4444 1151 4351 
Q 1244 4259 1244 4128 
Q 1244 3997 1151 3903 
Q 1059 3809 928 3809 
Q 797 3809 703 3903 
Q 609 3997 609 4128 
Q 609 4259 701 4351 
Q 794 4444 928 4444 
z
M 1188 2947 
L 1188 647 
Q 1188 378 1227 289 
Q 1266 200 1342 156 
Q 1419 113 1622 113 
L 1622 0 
L 231 0 
L 231 113 
Q 441 113 512 153 
Q 584 194 626 287 
Q 669 381 669 647 
L 669 1750 
Q 669 2216 641 2353 
Q 619 2453 572 2492 
Q 525 2531 444 2531 
Q 356 2531 231 2484 
L 188 2597 
L 1050 2947 
L 1188 2947 
z
" transform="scale(0.015625)"/>
       <path id="TimesNewRomanPSMT-64" d="M 2222 322 
Q 2013 103 1813 7 
Q 1613 -88 1381 -88 
Q 913 -88 563 304 
Q 213 697 213 1313 
Q 213 1928 600 2439 
Q 988 2950 1597 2950 
Q 1975 2950 2222 2709 
L 2222 3238 
Q 2222 3728 2198 3840 
Q 2175 3953 2125 3993 
Q 2075 4034 2000 4034 
Q 1919 4034 1784 3984 
L 1744 4094 
L 2597 4444 
L 2738 4444 
L 2738 1134 
Q 2738 631 2761 520 
Q 2784 409 2836 365 
Q 2888 322 2956 322 
Q 3041 322 3181 375 
L 3216 266 
L 2366 -88 
L 2222 -88 
L 2222 322 
z
M 2222 541 
L 2222 2016 
Q 2203 2228 2109 2403 
Q 2016 2578 1861 2667 
Q 1706 2756 1559 2756 
Q 1284 2756 1069 2509 
Q 784 2184 784 1559 
Q 784 928 1059 592 
Q 1334 256 1672 256 
Q 1956 256 2222 541 
z
" transform="scale(0.015625)"/>
       <path id="TimesNewRomanPSMT-6c" d="M 1184 4444 
L 1184 647 
Q 1184 378 1223 290 
Q 1263 203 1344 158 
Q 1425 113 1647 113 
L 1647 0 
L 244 0 
L 244 113 
Q 441 113 512 153 
Q 584 194 625 287 
Q 666 381 666 647 
L 666 3247 
Q 666 3731 644 3842 
Q 622 3953 573 3993 
Q 525 4034 450 4034 
Q 369 4034 244 3984 
L 191 4094 
L 1044 4444 
L 1184 4444 
z
" transform="scale(0.015625)"/>
       <path id="TimesNewRomanPSMT-79" d="M 38 2863 
L 1372 2863 
L 1372 2747 
L 1306 2747 
Q 1166 2747 1095 2686 
Q 1025 2625 1025 2534 
Q 1025 2413 1128 2197 
L 1825 753 
L 2466 2334 
Q 2519 2463 2519 2588 
Q 2519 2644 2497 2672 
Q 2472 2706 2419 2726 
Q 2366 2747 2231 2747 
L 2231 2863 
L 3163 2863 
L 3163 2747 
Q 3047 2734 2984 2696 
Q 2922 2659 2847 2556 
Q 2819 2513 2741 2316 
L 1575 -541 
Q 1406 -956 1132 -1168 
Q 859 -1381 606 -1381 
Q 422 -1381 303 -1275 
Q 184 -1169 184 -1031 
Q 184 -900 270 -820 
Q 356 -741 506 -741 
Q 609 -741 788 -809 
Q 913 -856 944 -856 
Q 1038 -856 1148 -759 
Q 1259 -663 1372 -384 
L 1575 113 
L 547 2272 
Q 500 2369 397 2513 
Q 319 2622 269 2659 
Q 197 2709 38 2747 
L 38 2863 
z
" transform="scale(0.015625)"/>
      </defs>
      <use xlink:href="#TimesNewRomanPSMT-47"/>
      <use xlink:href="#TimesNewRomanPSMT-61" x="72.216797"/>
      <use xlink:href="#TimesNewRomanPSMT-74" x="116.601562"/>
      <use xlink:href="#TimesNewRomanPSMT-65" x="144.384766"/>
      <use xlink:href="#TimesNewRomanPSMT-20" x="188.769531"/>
      <use xlink:href="#TimesNewRomanPSMT-66" x="213.769531"/>
      <use xlink:href="#TimesNewRomanPSMT-69" x="247.070312"/>
      <use xlink:href="#TimesNewRomanPSMT-64" x="274.853516"/>
      <use xlink:href="#TimesNewRomanPSMT-65" x="324.853516"/>
      <use xlink:href="#TimesNewRomanPSMT-6c" x="369.238281"/>
      <use xlink:href="#TimesNewRomanPSMT-69" x="397.021484"/>
      <use xlink:href="#TimesNewRomanPSMT-74" x="424.804688"/>
      <use xlink:href="#TimesNewRomanPSMT-79" x="452.587891"/>
     </g>
    </g>
   </g>
   <g id="matplotlib.axis_2">
    <g id="ytick_1">
     <g id="line2d_13">
      <path d="M 46.08 284.3136 
L 448.3584 284.3136 
" clip-path="url(#p7ff1e4772f)" style="fill: none; stroke: #b0b0b0; stroke-width: 0.8; stroke-linecap: square"/>
     </g>
     <g id="line2d_14">
      <defs>
       <path id="mc2c6ab7742" d="M 0 0 
L -3.5 0 
" style="stroke: #000000; stroke-width: 0.8"/>
      </defs>
      <g>
       <use xlink:href="#mc2c6ab7742" x="46.08" y="284.3136" style="stroke: #000000; stroke-width: 0.8"/>
      </g>
     </g>
     <g id="text_8">
      <!-- 0.3 -->
      <g transform="translate(21.58 289.174225)scale(0.14 -0.14)">
       <defs>
        <path id="TimesNewRomanPSMT-33" d="M 325 3431 
Q 506 3859 782 4092 
Q 1059 4325 1472 4325 
Q 1981 4325 2253 3994 
Q 2459 3747 2459 3466 
Q 2459 3003 1878 2509 
Q 2269 2356 2469 2072 
Q 2669 1788 2669 1403 
Q 2669 853 2319 450 
Q 1863 -75 997 -75 
Q 569 -75 414 31 
Q 259 138 259 259 
Q 259 350 332 419 
Q 406 488 509 488 
Q 588 488 669 463 
Q 722 447 909 348 
Q 1097 250 1169 231 
Q 1284 197 1416 197 
Q 1734 197 1970 444 
Q 2206 691 2206 1028 
Q 2206 1275 2097 1509 
Q 2016 1684 1919 1775 
Q 1784 1900 1550 2001 
Q 1316 2103 1072 2103 
L 972 2103 
L 972 2197 
Q 1219 2228 1467 2375 
Q 1716 2522 1828 2728 
Q 1941 2934 1941 3181 
Q 1941 3503 1739 3701 
Q 1538 3900 1238 3900 
Q 753 3900 428 3381 
L 325 3431 
z
" transform="scale(0.015625)"/>
       </defs>
       <use xlink:href="#TimesNewRomanPSMT-30"/>
       <use xlink:href="#TimesNewRomanPSMT-2e" x="50"/>
       <use xlink:href="#TimesNewRomanPSMT-33" x="75"/>
      </g>
     </g>
    </g>
    <g id="ytick_2">
     <g id="line2d_15">
      <path d="M 46.08 244.6848 
L 448.3584 244.6848 
" clip-path="url(#p7ff1e4772f)" style="fill: none; stroke: #b0b0b0; stroke-width: 0.8; stroke-linecap: square"/>
     </g>
     <g id="line2d_16">
      <g>
       <use xlink:href="#mc2c6ab7742" x="46.08" y="244.6848" style="stroke: #000000; stroke-width: 0.8"/>
      </g>
     </g>
     <g id="text_9">
      <!-- 0.4 -->
      <g transform="translate(21.58 249.545425)scale(0.14 -0.14)">
       <use xlink:href="#TimesNewRomanPSMT-30"/>
       <use xlink:href="#TimesNewRomanPSMT-2e" x="50"/>
       <use xlink:href="#TimesNewRomanPSMT-34" x="75"/>
      </g>
     </g>
    </g>
    <g id="ytick_3">
     <g id="line2d_17">
      <path d="M 46.08 205.056 
L 448.3584 205.056 
" clip-path="url(#p7ff1e4772f)" style="fill: none; stroke: #b0b0b0; stroke-width: 0.8; stroke-linecap: square"/>
     </g>
     <g id="line2d_18">
      <g>
       <use xlink:href="#mc2c6ab7742" x="46.08" y="205.056" style="stroke: #000000; stroke-width: 0.8"/>
      </g>
     </g>
     <g id="text_10">
      <!-- 0.5 -->
      <g transform="translate(21.58 209.916625)scale(0.14 -0.14)">
       <defs>
        <path id="TimesNewRomanPSMT-35" d="M 2778 4238 
L 2534 3706 
L 1259 3706 
L 981 3138 
Q 1809 3016 2294 2522 
Q 2709 2097 2709 1522 
Q 2709 1188 2573 903 
Q 2438 619 2231 419 
Q 2025 219 1772 97 
Q 1413 -75 1034 -75 
Q 653 -75 479 54 
Q 306 184 306 341 
Q 306 428 378 495 
Q 450 563 559 563 
Q 641 563 702 538 
Q 763 513 909 409 
Q 1144 247 1384 247 
Q 1750 247 2026 523 
Q 2303 800 2303 1197 
Q 2303 1581 2056 1914 
Q 1809 2247 1375 2428 
Q 1034 2569 447 2591 
L 1259 4238 
L 2778 4238 
z
" transform="scale(0.015625)"/>
       </defs>
       <use xlink:href="#TimesNewRomanPSMT-30"/>
       <use xlink:href="#TimesNewRomanPSMT-2e" x="50"/>
       <use xlink:href="#TimesNewRomanPSMT-35" x="75"/>
      </g>
     </g>
    </g>
    <g id="ytick_4">
     <g id="line2d_19">
      <path d="M 46.08 165.4272 
L 448.3584 165.4272 
" clip-path="url(#p7ff1e4772f)" style="fill: none; stroke: #b0b0b0; stroke-width: 0.8; stroke-linecap: square"/>
     </g>
     <g id="line2d_20">
      <g>
       <use xlink:href="#mc2c6ab7742" x="46.08" y="165.4272" style="stroke: #000000; stroke-width: 0.8"/>
      </g>
     </g>
     <g id="text_11">
      <!-- 0.6 -->
      <g transform="translate(21.58 170.287825)scale(0.14 -0.14)">
       <use xlink:href="#TimesNewRomanPSMT-30"/>
       <use xlink:href="#TimesNewRomanPSMT-2e" x="50"/>
       <use xlink:href="#TimesNewRomanPSMT-36" x="75"/>
      </g>
     </g>
    </g>
    <g id="ytick_5">
     <g id="line2d_21">
      <path d="M 46.08 125.7984 
L 448.3584 125.7984 
" clip-path="url(#p7ff1e4772f)" style="fill: none; stroke: #b0b0b0; stroke-width: 0.8; stroke-linecap: square"/>
     </g>
     <g id="line2d_22">
      <g>
       <use xlink:href="#mc2c6ab7742" x="46.08" y="125.7984" style="stroke: #000000; stroke-width: 0.8"/>
      </g>
     </g>
     <g id="text_12">
      <!-- 0.7 -->
      <g transform="translate(21.58 130.659025)scale(0.14 -0.14)">
       <defs>
        <path id="TimesNewRomanPSMT-37" d="M 644 4238 
L 2916 4238 
L 2916 4119 
L 1503 -88 
L 1153 -88 
L 2419 3728 
L 1253 3728 
Q 900 3728 750 3644 
Q 488 3500 328 3200 
L 238 3234 
L 644 4238 
z
" transform="scale(0.015625)"/>
       </defs>
       <use xlink:href="#TimesNewRomanPSMT-30"/>
       <use xlink:href="#TimesNewRomanPSMT-2e" x="50"/>
       <use xlink:href="#TimesNewRomanPSMT-37" x="75"/>
      </g>
     </g>
    </g>
    <g id="ytick_6">
     <g id="line2d_23">
      <path d="M 46.08 86.1696 
L 448.3584 86.1696 
" clip-path="url(#p7ff1e4772f)" style="fill: none; stroke: #b0b0b0; stroke-width: 0.8; stroke-linecap: square"/>
     </g>
     <g id="line2d_24">
      <g>
       <use xlink:href="#mc2c6ab7742" x="46.08" y="86.1696" style="stroke: #000000; stroke-width: 0.8"/>
      </g>
     </g>
     <g id="text_13">
      <!-- 0.8 -->
      <g transform="translate(21.58 91.030225)scale(0.14 -0.14)">
       <use xlink:href="#TimesNewRomanPSMT-30"/>
       <use xlink:href="#TimesNewRomanPSMT-2e" x="50"/>
       <use xlink:href="#TimesNewRomanPSMT-38" x="75"/>
      </g>
     </g>
    </g>
    <g id="ytick_7">
     <g id="line2d_25">
      <path d="M 46.08 46.5408 
L 448.3584 46.5408 
" clip-path="url(#p7ff1e4772f)" style="fill: none; stroke: #b0b0b0; stroke-width: 0.8; stroke-linecap: square"/>
     </g>
     <g id="line2d_26">
      <g>
       <use xlink:href="#mc2c6ab7742" x="46.08" y="46.5408" style="stroke: #000000; stroke-width: 0.8"/>
      </g>
     </g>
     <g id="text_14">
      <!-- 0.9 -->
      <g transform="translate(21.58 51.401425)scale(0.14 -0.14)">
       <use xlink:href="#TimesNewRomanPSMT-30"/>
       <use xlink:href="#TimesNewRomanPSMT-2e" x="50"/>
       <use xlink:href="#TimesNewRomanPSMT-39" x="75"/>
      </g>
     </g>
    </g>
    <g id="ytick_8">
     <g id="line2d_27">
      <path d="M 46.08 6.912 
L 448.3584 6.912 
" clip-path="url(#p7ff1e4772f)" style="fill: none; stroke: #b0b0b0; stroke-width: 0.8; stroke-linecap: square"/>
     </g>
     <g id="line2d_28">
      <g>
       <use xlink:href="#mc2c6ab7742" x="46.08" y="6.912" style="stroke: #000000; stroke-width: 0.8"/>
      </g>
     </g>
     <g id="text_15">
      <!-- 1.0 -->
      <g transform="translate(21.58 11.772625)scale(0.14 -0.14)">
       <use xlink:href="#TimesNewRomanPSMT-31"/>
       <use xlink:href="#TimesNewRomanPSMT-2e" x="50"/>
       <use xlink:href="#TimesNewRomanPSMT-30" x="75"/>
      </g>
     </g>
    </g>
    <g id="text_16">
     <!-- Link fidelity -->
     <g transform="translate(14.559063 190.707031)rotate(-90)scale(0.14 -0.14)">
      <defs>
       <path id="TimesNewRomanPSMT-4c" d="M 3669 1172 
L 3772 1150 
L 3409 0 
L 128 0 
L 128 116 
L 288 116 
Q 556 116 672 291 
Q 738 391 738 753 
L 738 3488 
Q 738 3884 650 3984 
Q 528 4122 288 4122 
L 128 4122 
L 128 4238 
L 2047 4238 
L 2047 4122 
Q 1709 4125 1573 4059 
Q 1438 3994 1388 3894 
Q 1338 3794 1338 3416 
L 1338 753 
Q 1338 494 1388 397 
Q 1425 331 1503 300 
Q 1581 269 1991 269 
L 2300 269 
Q 2788 269 2984 341 
Q 3181 413 3343 595 
Q 3506 778 3669 1172 
z
" transform="scale(0.015625)"/>
       <path id="TimesNewRomanPSMT-6e" d="M 1034 2341 
Q 1538 2947 1994 2947 
Q 2228 2947 2397 2830 
Q 2566 2713 2666 2444 
Q 2734 2256 2734 1869 
L 2734 647 
Q 2734 375 2778 278 
Q 2813 200 2889 156 
Q 2966 113 3172 113 
L 3172 0 
L 1756 0 
L 1756 113 
L 1816 113 
Q 2016 113 2095 173 
Q 2175 234 2206 353 
Q 2219 400 2219 647 
L 2219 1819 
Q 2219 2209 2117 2386 
Q 2016 2563 1775 2563 
Q 1403 2563 1034 2156 
L 1034 647 
Q 1034 356 1069 288 
Q 1113 197 1189 155 
Q 1266 113 1500 113 
L 1500 0 
L 84 0 
L 84 113 
L 147 113 
Q 366 113 442 223 
Q 519 334 519 647 
L 519 1709 
Q 519 2225 495 2337 
Q 472 2450 423 2490 
Q 375 2531 294 2531 
Q 206 2531 84 2484 
L 38 2597 
L 900 2947 
L 1034 2947 
L 1034 2341 
z
" transform="scale(0.015625)"/>
       <path id="TimesNewRomanPSMT-6b" d="M 1047 4444 
L 1047 1594 
L 1775 2259 
Q 2006 2472 2044 2528 
Q 2069 2566 2069 2603 
Q 2069 2666 2017 2711 
Q 1966 2756 1847 2763 
L 1847 2863 
L 3091 2863 
L 3091 2763 
Q 2834 2756 2664 2684 
Q 2494 2613 2291 2428 
L 1556 1750 
L 2291 822 
Q 2597 438 2703 334 
Q 2853 188 2966 144 
Q 3044 113 3238 113 
L 3238 0 
L 1847 0 
L 1847 113 
Q 1966 116 2008 148 
Q 2050 181 2050 241 
Q 2050 313 1925 472 
L 1047 1594 
L 1047 644 
Q 1047 366 1086 278 
Q 1125 191 1197 153 
Q 1269 116 1509 113 
L 1509 0 
L 53 0 
L 53 113 
Q 272 113 381 166 
Q 447 200 481 272 
Q 528 375 528 628 
L 528 3234 
Q 528 3731 506 3842 
Q 484 3953 434 3995 
Q 384 4038 303 4038 
Q 238 4038 106 3984 
L 53 4094 
L 903 4444 
L 1047 4444 
z
" transform="scale(0.015625)"/>
      </defs>
      <use xlink:href="#TimesNewRomanPSMT-4c"/>
      <use xlink:href="#TimesNewRomanPSMT-69" x="61.083984"/>
      <use xlink:href="#TimesNewRomanPSMT-6e" x="88.867188"/>
      <use xlink:href="#TimesNewRomanPSMT-6b" x="138.867188"/>
      <use xlink:href="#TimesNewRomanPSMT-20" x="188.867188"/>
      <use xlink:href="#TimesNewRomanPSMT-66" x="213.867188"/>
      <use xlink:href="#TimesNewRomanPSMT-69" x="247.167969"/>
      <use xlink:href="#TimesNewRomanPSMT-64" x="274.951172"/>
      <use xlink:href="#TimesNewRomanPSMT-65" x="324.951172"/>
      <use xlink:href="#TimesNewRomanPSMT-6c" x="369.335938"/>
      <use xlink:href="#TimesNewRomanPSMT-69" x="397.119141"/>
      <use xlink:href="#TimesNewRomanPSMT-74" x="424.902344"/>
      <use xlink:href="#TimesNewRomanPSMT-79" x="452.685547"/>
     </g>
    </g>
   </g>
   <g id="PathCollection_1"/>
   <g id="PathCollection_2"/>
   <g id="PathCollection_3">
    <path d="M 46.08 199.81658 
L 46.355441 200.1024 
L 49.138934 203.07456 
L 50.102784 204.141641 
L 51.851905 206.04672 
L 51.92839 206.134001 
" clip-path="url(#p7ff1e4772f)" style="fill: none; stroke: #000000; stroke-width: 1.5"/>
    <path d="M 57.49286 242.389464 
L 54.125568 244.434637 
L 53.69784 244.6848 
L 50.102784 246.304575 
L 46.966295 247.65696 
L 46.08 247.962624 
" clip-path="url(#p7ff1e4772f)" style="fill: none; stroke: #000000; stroke-width: 1.5"/>
    <path d="M 97.85672 6.912 
L 94.353408 8.874108 
L 92.55669 9.88416 
L 90.330624 11.163694 
L 88.853375 12.01589 
" clip-path="url(#p7ff1e4772f)" style="fill: none; stroke: #000000; stroke-width: 1.5"/>
    <path d="M 52.262218 35.834821 
L 51.179541 36.6336 
L 50.102784 37.45515 
L 47.290916 39.60576 
L 46.08 40.565158 
" clip-path="url(#p7ff1e4772f)" style="fill: none; stroke: #000000; stroke-width: 1.5"/>
   </g>
   <g id="PathCollection_4">
    <path d="M 170.582391 6.912 
L 166.76352 8.953819 
L 165.030359 9.88416 
L 162.740736 11.140275 
L 159.624805 12.85632 
L 158.717952 13.367276 
L 154.695168 15.641689 
L 154.365744 15.82848 
L 150.672384 17.973385 
L 149.253063 18.80064 
L 146.6496 20.356566 
L 144.288163 21.7728 
L 142.626816 22.795668 
L 139.471452 24.74496 
L 138.604032 25.295781 
L 134.803351 27.71712 
L 134.581248 27.862763 
L 130.558464 30.508242 
L 130.283969 30.68928 
L 126.53568 33.237527 
L 125.913983 33.66144 
L 122.512896 36.055602 
L 121.694124 36.6336 
L 118.490112 38.972464 
L 117.624881 39.60576 
L 114.467328 41.999803 
L 113.706763 42.57792 
L 110.444544 45.151358 
L 109.940301 45.55008 
L 106.42176 48.443362 
L 106.326048 48.52224 
L 102.863982 51.4944 
L 102.398976 51.911394 
L 99.554971 54.46656 
L 98.376192 55.57577 
L 96.399764 57.43872 
L 94.353408 59.464607 
L 93.39902 60.41088 
L 90.553127 63.38304 
L 90.330624 63.628484 
L 87.86158 66.3552 
L 86.30784 68.176099 
L 85.326409 69.32736 
L 82.94747 72.29952 
L 82.285056 73.185009 
L 80.724879 75.27168 
L 78.660285 78.24384 
L 78.262272 78.863915 
L 76.75264 81.216 
L 75.003969 84.18816 
L 74.239488 85.617377 
L 73.413855 87.16032 
L 71.982838 90.13248 
L 70.712312 93.10464 
L 70.216704 94.431676 
L 69.601597 96.0768 
L 68.651376 99.04896 
L 67.862696 102.02112 
L 67.235852 104.99328 
L 66.771137 107.96544 
L 66.468844 110.9376 
L 66.329263 113.90976 
L 66.352674 116.88192 
L 66.539346 119.85408 
L 66.889531 122.82624 
L 67.403455 125.7984 
L 68.081314 128.77056 
L 68.923263 131.74272 
L 69.929408 134.71488 
L 70.216704 135.446629 
L 71.098205 137.68704 
L 72.430354 140.6592 
L 73.92623 143.63136 
L 74.239488 144.1948 
L 75.583097 146.60352 
L 77.402123 149.57568 
L 78.262272 150.870458 
L 79.381221 152.54784 
L 81.519781 155.52 
L 82.285056 156.514114 
L 83.815497 158.49216 
L 86.268234 161.46432 
L 86.30784 161.509785 
L 88.872883 164.43648 
L 90.330624 166.013064 
L 91.629514 167.40864 
L 94.353408 170.196446 
L 94.534823 170.3808 
L 97.583418 173.35296 
L 98.376192 174.096448 
L 100.772392 176.32512 
L 102.398976 177.785866 
L 104.097046 179.29728 
L 106.42176 181.303645 
L 107.551544 182.26944 
L 110.444544 184.677545 
L 111.129148 185.2416 
L 114.467328 187.931067 
L 114.82207 188.21376 
L 118.490112 191.08444 
L 118.621303 191.18592 
L 121.09693 193.074963 
" clip-path="url(#p7ff1e4772f)" style="fill: none; stroke: #000000; stroke-width: 1.5"/>
    <path d="M 156.509783 218.962402 
L 158.717952 220.653127 
L 159.057517 220.90752 
L 162.740736 223.853041 
L 162.774827 223.87968 
L 166.260113 226.85184 
L 166.76352 227.332341 
L 169.443334 229.824 
L 170.786304 231.271902 
L 172.240143 232.79616 
L 174.548462 235.76832 
L 174.809088 236.238291 
L 176.241495 238.74048 
L 177.169288 241.71264 
L 177.143369 244.6848 
L 175.930001 247.65696 
L 174.809088 248.926488 
L 173.234249 250.62912 
L 170.786304 252.263898 
L 168.681652 253.60128 
L 166.76352 254.460746 
L 162.740736 256.181508 
L 161.788206 256.57344 
L 158.717952 257.53545 
L 154.695168 258.743848 
L 151.917567 259.5456 
L 150.672384 259.832058 
L 146.6496 260.73399 
L 142.626816 261.60264 
L 138.604032 262.439808 
L 138.221469 262.51776 
L 134.581248 263.13038 
L 130.558464 263.787683 
L 126.53568 264.425274 
L 122.512896 265.044023 
L 119.537324 265.48992 
L 118.490112 265.622646 
L 114.467328 266.123868 
L 110.444544 266.612476 
L 106.42176 267.088937 
L 102.398976 267.553695 
L 98.376192 268.007172 
L 94.353408 268.449771 
L 94.240005 268.46208 
L 90.330624 268.828559 
L 86.30784 269.197785 
L 82.285056 269.559275 
L 78.262272 269.913266 
L 74.239488 270.259987 
L 70.216704 270.599658 
L 66.19392 270.93249 
L 62.171136 271.258684 
L 59.971136 271.43424 
L 58.148352 271.561842 
L 54.125568 271.839603 
L 50.102784 272.112431 
L 46.08 272.380456 
" clip-path="url(#p7ff1e4772f)" style="fill: none; stroke: #000000; stroke-width: 1.5"/>
   </g>
   <g id="PathCollection_5">
    <path d="M 241.921934 6.912 
L 230.453034 12.85632 
L 219.059712 19.105569 
L 209.352237 24.74496 
L 199.731568 30.68928 
L 190.737727 36.6336 
L 182.375592 42.57792 
L 174.651422 48.52224 
L 167.57 54.46656 
L 162.740736 58.889518 
L 158.167052 63.38304 
L 154.695168 67.103173 
L 150.672384 71.784818 
L 150.244167 72.29952 
L 146.6496 77.056255 
L 145.794503 78.24384 
L 142.626816 83.185513 
L 142.018572 84.18816 
L 140.384775 87.16032 
L 138.604032 90.866207 
L 137.631388 93.10464 
L 136.512761 96.0768 
L 135.567924 99.04896 
L 134.581248 103.101493 
L 134.201832 104.99328 
L 133.781983 107.96544 
L 133.539162 110.9376 
L 133.474205 113.90976 
L 133.58798 116.88192 
L 133.881387 119.85408 
L 134.581248 123.851957 
L 135.010122 125.7984 
L 135.846685 128.77056 
L 136.866422 131.74272 
L 138.604032 135.859254 
L 139.458004 137.68704 
L 141.030608 140.6592 
L 142.789833 143.63136 
L 144.733744 146.60352 
L 146.865773 149.57568 
L 150.672384 154.317208 
L 151.688972 155.52 
L 154.695168 158.816831 
L 158.717952 162.880275 
L 162.740736 166.644203 
L 166.76352 170.160176 
L 170.643539 173.35296 
L 174.809088 176.595434 
L 182.602031 182.26944 
L 186.943486 185.2416 
L 196.136787 191.18592 
L 205.978666 197.13024 
L 215.036928 202.31021 
L 223.082496 206.73159 
L 235.150848 213.133891 
L 273.068168 232.79616 
L 283.491242 238.74048 
L 288.182277 241.71264 
L 292.373365 244.6848 
L 295.913316 247.65696 
L 298.6109 250.62912 
L 300.226011 253.60128 
L 300.447524 256.57344 
L 298.871347 259.5456 
L 294.960458 262.51776 
L 287.989747 265.48992 
L 283.424256 266.773388 
L 276.956292 268.46208 
L 267.33312 270.25279 
L 259.287552 271.589295 
L 243.196416 273.61609 
L 235.150848 274.51892 
L 215.036928 276.296555 
L 198.945792 277.54473 
L 172.540565 279.160099 
L 172.540565 279.160099 
" clip-path="url(#p7ff1e4772f)" style="fill: none; stroke: #000000; stroke-width: 1.5"/>
    <path d="M 128.798194 281.303047 
L 126.53568 281.39716 
L 122.512896 281.56183 
L 118.490112 281.723897 
L 114.467328 281.883422 
L 110.444544 282.040463 
L 106.42176 282.195078 
L 102.398976 282.34732 
L 98.376192 282.497245 
L 94.353408 282.644902 
L 90.330624 282.790343 
L 86.30784 282.933617 
L 82.285056 283.07477 
L 78.262272 283.213849 
L 75.065898 283.32288 
L 74.239488 283.347967 
L 70.216704 283.468975 
L 66.19392 283.588366 
L 62.171136 283.706173 
L 58.148352 283.822425 
L 54.125568 283.937154 
L 50.102784 284.050387 
L 46.08 284.162154 
" clip-path="url(#p7ff1e4772f)" style="fill: none; stroke: #000000; stroke-width: 1.5"/>
   </g>
   <g id="PathCollection_6">
    <path d="M 311.952794 6.912 
L 299.515392 13.084654 
L 287.44704 19.429021 
L 277.882761 24.74496 
L 267.33312 30.986037 
L 258.396545 36.6336 
L 249.640925 42.57792 
L 241.552971 48.52224 
L 234.139672 54.46656 
L 230.68838 57.43872 
L 227.10528 60.700127 
L 223.082496 64.614913 
L 219.059712 68.837486 
L 218.60538 69.32736 
L 215.036928 73.511682 
L 213.61107 75.27168 
L 211.014144 78.772974 
L 209.326352 81.216 
L 206.99136 84.99845 
L 205.75971 87.16032 
L 204.248375 90.13248 
L 202.920577 93.10464 
L 201.775704 96.0768 
L 200.816636 99.04896 
L 200.04444 102.02112 
L 199.460244 104.99328 
L 198.945792 109.701082 
L 198.860533 110.9376 
L 198.945792 115.524472 
L 199.028198 116.88192 
L 199.403148 119.85408 
L 199.974244 122.82624 
L 200.743103 125.7984 
L 201.711418 128.77056 
L 202.968576 131.932941 
L 204.251406 134.71488 
L 205.82633 137.68704 
L 207.606825 140.6592 
L 209.593618 143.63136 
L 211.789512 146.60352 
L 215.036928 150.534002 
L 216.81218 152.54784 
L 219.643086 155.52 
L 223.082496 158.853025 
L 227.10528 162.455826 
L 231.128064 165.807788 
L 235.150848 168.950406 
L 239.173632 171.91648 
L 243.196416 174.732166 
L 247.2192 177.418462 
L 251.241984 179.992285 
L 259.287552 184.845761 
L 265.216492 188.21376 
L 271.355904 191.534693 
L 282.312564 197.13024 
L 291.469824 201.52528 
L 301.370105 206.04672 
L 311.583744 210.498665 
L 323.652096 215.527157 
L 339.743232 221.929625 
L 359.857152 229.57311 
L 392.658085 241.71264 
L 415.615221 250.62912 
L 428.861237 256.57344 
L 434.322226 259.5456 
L 438.629696 262.51776 
L 441.375405 265.48992 
L 441.999222 268.46208 
L 439.716411 271.43424 
L 433.389016 274.4064 
L 428.24448 275.745744 
L 421.316535 277.37856 
L 412.153344 278.79271 
L 400.084992 280.427131 
L 383.993856 281.953136 
L 367.536953 283.32288 
L 343.766016 284.750116 
L 315.606528 286.198264 
L 303.538176 286.688166 
L 267.33312 287.964895 
L 236.978178 288.888122 
L 236.978178 288.888122 
" clip-path="url(#p7ff1e4772f)" style="fill: none; stroke: #000000; stroke-width: 1.5"/>
    <path d="M 193.09351 289.947744 
L 190.900224 289.994507 
L 186.87744 290.079086 
L 182.854656 290.162497 
L 178.831872 290.244764 
L 174.809088 290.32591 
L 170.786304 290.405957 
L 166.76352 290.484927 
L 162.740736 290.562841 
L 158.717952 290.63972 
L 154.695168 290.715584 
L 150.672384 290.790453 
L 146.6496 290.864345 
L 142.626816 290.93728 
L 138.604032 291.009276 
L 134.581248 291.08035 
L 130.558464 291.150519 
L 126.53568 291.219801 
L 122.512896 291.288211 
L 118.490112 291.355766 
L 114.467328 291.422482 
L 110.444544 291.488373 
L 106.42176 291.553454 
L 102.398976 291.617741 
L 98.376192 291.681247 
L 94.353408 291.743986 
L 90.330624 291.805972 
L 86.30784 291.867217 
L 82.285056 291.927735 
L 78.262272 291.987538 
L 74.239488 292.046639 
L 70.216704 292.105049 
L 66.19392 292.162781 
L 62.171136 292.219845 
L 60.783562 292.23936 
L 58.148352 292.272655 
L 54.125568 292.323009 
L 50.102784 292.372827 
L 46.08 292.422116 
" clip-path="url(#p7ff1e4772f)" style="fill: none; stroke: #000000; stroke-width: 1.5"/>
   </g>
   <g id="PathCollection_7">
    <path d="M 448.3584 294.842018 
L 444.335616 294.933367 
L 440.312832 295.022795 
L 436.290048 295.110361 
L 432.267264 295.196122 
L 431.535386 295.21152 
L 428.24448 295.27007 
L 424.221696 295.340462 
L 420.198912 295.409605 
L 416.176128 295.477531 
L 412.153344 295.544273 
L 408.13056 295.60986 
L 404.107776 295.674322 
L 400.084992 295.737688 
L 396.062208 295.799984 
L 392.039424 295.861238 
L 388.01664 295.921475 
L 385.775945 295.954475 
" clip-path="url(#p7ff1e4772f)" style="fill: none; stroke: #000000; stroke-width: 1.5"/>
    <path d="M 341.983574 296.545599 
L 339.743232 296.573314 
L 335.720448 296.622331 
L 331.697664 296.670617 
L 327.67488 296.718187 
L 323.652096 296.765058 
L 319.629312 296.811243 
L 315.606528 296.856758 
L 311.583744 296.901618 
L 307.56096 296.945835 
L 303.538176 296.989424 
L 299.515392 297.032398 
L 295.492608 297.074769 
L 291.469824 297.11655 
L 287.44704 297.157753 
L 283.424256 297.198389 
L 279.401472 297.23847 
L 275.378688 297.278008 
L 271.355904 297.317012 
L 267.33312 297.355494 
L 263.310336 297.393464 
L 259.287552 297.430931 
L 255.264768 297.467906 
L 251.241984 297.504398 
L 247.2192 297.540416 
L 243.196416 297.575969 
L 239.173632 297.611067 
L 235.150848 297.645716 
L 231.128064 297.679927 
L 227.10528 297.713707 
L 223.082496 297.747064 
L 219.059712 297.780006 
L 215.036928 297.81254 
L 211.014144 297.844673 
L 206.99136 297.876414 
L 202.968576 297.907769 
L 198.945792 297.938744 
L 194.923008 297.969347 
L 190.900224 297.999583 
L 186.87744 298.029461 
L 182.854656 298.058984 
L 178.831872 298.088161 
L 174.809088 298.116996 
L 170.786304 298.145496 
L 166.76352 298.173667 
L 165.32113 298.18368 
L 162.740736 298.199668 
L 158.717952 298.224365 
L 154.695168 298.248799 
L 150.672384 298.272975 
L 146.6496 298.296896 
L 142.626816 298.320567 
L 138.604032 298.343991 
L 134.581248 298.367173 
L 130.558464 298.390115 
L 126.53568 298.412822 
L 122.512896 298.435296 
L 118.490112 298.457541 
L 114.467328 298.479562 
L 110.444544 298.50136 
L 106.42176 298.522939 
L 102.398976 298.544303 
L 98.376192 298.565454 
L 94.353408 298.586396 
L 90.330624 298.607131 
L 86.30784 298.627663 
L 82.285056 298.647994 
L 78.262272 298.668128 
L 74.239488 298.688066 
L 70.216704 298.707813 
L 66.19392 298.727369 
L 62.171136 298.746739 
L 58.148352 298.765924 
L 54.125568 298.784927 
L 50.102784 298.803751 
L 46.08 298.822398 
" clip-path="url(#p7ff1e4772f)" style="fill: none; stroke: #000000; stroke-width: 1.5"/>
    <path d="M 380.743452 6.912 
L 379.971072 7.272374 
L 375.948288 9.155378 
L 374.397419 9.88416 
L 371.925504 11.069366 
L 368.215294 12.85632 
L 367.90272 13.010083 
L 363.879936 14.994694 
L 362.196791 15.82848 
L 359.857152 17.013576 
L 356.344199 18.80064 
L 355.834368 19.06614 
L 351.811584 21.167593 
L 350.657326 21.7728 
L 348.596723 22.880222 
" clip-path="url(#p7ff1e4772f)" style="fill: none; stroke: #000000; stroke-width: 1.5"/>
    <path d="M 311.269593 45.545326 
L 311.262699 45.55008 
L 307.56096 48.202064 
L 307.115374 48.52224 
L 303.538176 51.19881 
L 303.144235 51.4944 
L 299.515392 54.336948 
L 299.350366 54.46656 
L 295.734597 57.43872 
L 295.492608 57.647552 
L 292.297978 60.41088 
L 291.469824 61.165624 
L 289.041949 63.38304 
L 287.44704 64.92359 
L 285.967814 66.3552 
L 283.424256 68.969725 
L 283.076942 69.32736 
L 280.369485 72.29952 
L 279.401472 73.439363 
L 277.847505 75.27168 
L 275.512864 78.24384 
L 275.378688 78.429346 
L 273.365017 81.216 
L 271.407743 84.18816 
L 271.355904 84.275269 
L 269.639853 87.16032 
L 268.065027 90.13248 
L 267.33312 91.707158 
L 266.683581 93.10464 
L 265.496896 96.0768 
L 264.507352 99.04896 
L 263.716359 102.02112 
L 263.310336 104.062884 
L 263.125126 104.99328 
L 262.735191 107.96544 
L 262.548848 110.9376 
L 262.567877 113.90976 
L 262.794163 116.88192 
L 263.229703 119.85408 
L 263.310336 120.224961 
L 263.875691 122.82624 
L 264.734777 125.7984 
L 265.80944 128.77056 
L 267.102163 131.74272 
L 267.33312 132.197318 
L 268.613407 134.71488 
L 270.347293 137.68704 
L 271.355904 139.219181 
L 272.305482 140.6592 
L 274.490504 143.63136 
L 275.378688 144.726571 
L 276.904621 146.60352 
L 279.401472 149.407556 
L 279.551611 149.57568 
L 282.431952 152.54784 
L 283.424256 153.496175 
L 285.549919 155.52 
L 287.44704 157.202042 
L 288.908296 158.49216 
L 291.469824 160.608993 
L 292.509725 161.46432 
L 295.492608 163.771412 
L 296.356984 164.43648 
L 299.515392 166.731307 
L 300.452984 167.40864 
L 303.538176 169.52153 
L 304.800774 170.3808 
L 307.56096 172.168033 
L 309.403542 173.35296 
L 311.583744 174.691464 
L 314.264613 176.32512 
L 315.606528 177.108322 
L 319.387447 179.29728 
L 319.629312 179.431812 
L 323.652096 181.654853 
L 324.773443 182.26944 
L 327.67488 183.801624 
L 330.427468 185.2416 
L 331.697664 185.883707 
L 335.720448 187.899404 
L 336.352544 188.21376 
L 339.743232 189.847661 
L 342.550727 191.18592 
L 343.766016 191.748824 
L 347.7888 193.595324 
L 349.025986 194.15808 
L 351.811584 195.392577 
L 355.781759 197.13024 
L 355.834368 197.152738 
L 359.857152 198.861238 
L 362.81844 200.1024 
L 363.879936 200.538277 
L 367.90272 202.174847 
L 370.140675 203.07456 
L 371.925504 203.779472 
L 375.948288 205.350642 
L 377.750467 206.04672 
L 379.971072 206.891675 
L 383.993856 208.403476 
L 385.649601 209.01888 
L 388.01664 209.888102 
L 392.039424 211.346155 
L 393.839556 211.99104 
L 396.062208 212.780111 
L 400.084992 214.189706 
L 402.321396 214.9632 
L 404.107776 215.577416 
L 408.13056 216.943589 
L 411.095632 217.93536 
L 412.153344 218.288248 
L 416.176128 219.615862 
L 420.16205 220.90752 
L 420.198912 220.919477 
L 424.221696 222.213294 
L 428.24448 223.482819 
L 429.516776 223.87968 
L 432.267264 224.741438 
L 436.290048 225.98161 
L 439.159416 226.85184 
L 440.312832 227.204662 
L 444.335616 228.420144 
L 448.3584 229.611331 
" clip-path="url(#p7ff1e4772f)" style="fill: none; stroke: #000000; stroke-width: 1.5"/>
   </g>
   <g id="PathCollection_8">
    <path d="M 448.3584 6.912 
L 444.335616 8.714398 
L 441.73728 9.88416 
L 440.312832 10.538058 
L 436.290048 12.391776 
L 435.285383 12.85632 
L 432.267264 14.280817 
L 429.003216 15.82848 
L 428.24448 16.1961 
L 424.221696 18.151626 
L 422.891647 18.80064 
L 420.198912 20.144895 
L 416.952246 21.7728 
L 416.176128 22.17141 
L 414.22402 23.177396 
" clip-path="url(#p7ff1e4772f)" style="fill: none; stroke: #000000; stroke-width: 1.5"/>
    <path d="M 376.274946 45.20869 
L 375.948288 45.423287 
L 375.755871 45.55008 
L 371.925504 48.170563 
L 371.413105 48.52224 
L 367.90272 51.029433 
L 367.253695 51.4944 
L 363.879936 54.016005 
L 363.278864 54.46656 
L 359.857152 57.149918 
L 359.489889 57.43872 
L 355.888041 60.41088 
L 355.834368 60.457497 
L 352.474089 63.38304 
L 351.811584 63.992694 
L 349.249951 66.3552 
L 347.7888 67.785641 
L 346.217167 69.32736 
L 343.766016 71.892108 
L 343.377359 72.29952 
L 340.73093 75.27168 
L 339.743232 76.468495 
L 338.280176 78.24384 
L 336.02708 81.216 
L 335.720448 81.659041 
L 333.971766 84.18816 
L 332.117706 87.16032 
L 331.697664 87.915381 
L 330.464944 90.13248 
L 329.016302 93.10464 
L 327.773895 96.0768 
L 327.67488 96.360942 
L 326.737982 99.04896 
L 325.911773 102.02112 
L 325.297245 104.99328 
L 324.896342 107.96544 
L 324.711126 110.9376 
L 324.743787 113.90976 
L 324.996648 116.88192 
L 325.472178 119.85408 
L 326.172998 122.82624 
L 327.101892 125.7984 
L 327.67488 127.26785 
L 328.260865 128.77056 
L 329.652667 131.74272 
L 331.281543 134.71488 
L 331.697664 135.377861 
L 333.148584 137.68704 
L 335.258811 140.6592 
L 335.720448 141.242717 
L 337.613634 143.63136 
L 339.743232 146.062322 
L 340.218392 146.60352 
L 343.074968 149.57568 
L 343.766016 150.23715 
L 346.187447 152.54784 
L 347.7888 153.961608 
L 349.560174 155.52 
L 351.811584 157.362775 
L 353.196902 158.49216 
L 355.834368 160.502619 
L 357.101628 161.46432 
L 359.857152 163.428335 
L 361.278612 164.43648 
L 363.879936 166.176387 
L 365.732396 167.40864 
L 367.90272 168.775281 
L 370.467817 170.3808 
L 371.925504 171.24751 
L 375.490034 173.35296 
L 375.948288 173.610931 
L 379.971072 175.862478 
L 380.80297 176.32512 
L 383.993856 178.021444 
L 386.412595 179.29728 
L 388.01664 180.10848 
L 392.039424 182.126748 
L 392.325442 182.26944 
L 396.062208 184.061653 
L 398.544982 185.2416 
L 400.084992 185.947154 
L 404.107776 187.775301 
L 405.079423 188.21376 
L 408.13056 189.544431 
L 411.934488 191.18592 
L 412.153344 191.277437 
L 416.176128 192.949639 
L 419.115319 194.15808 
L 420.198912 194.590865 
L 424.221696 196.185263 
L 426.630256 197.13024 
L 428.24448 197.746976 
L 432.267264 199.270412 
L 434.486196 200.1024 
L 436.290048 200.762654 
L 440.312832 202.22135 
L 442.690519 203.07456 
L 444.335616 203.65226 
L 448.3584 205.05192 
" clip-path="url(#p7ff1e4772f)" style="fill: none; stroke: #000000; stroke-width: 1.5"/>
   </g>
   <g id="PathCollection_9">
    <path d="M 448.3584 39.821199 
L 444.335616 42.250281 
L 443.794839 42.57792 
L 440.312832 44.761858 
L 439.060607 45.55008 
L 436.290048 47.359297 
L 434.515278 48.52224 
L 432.267264 50.053955 
L 430.160143 51.4944 
L 428.24448 52.859574 
L 425.996552 54.46656 
L 424.221696 55.792917 
L 422.025912 57.43872 
L 420.198912 58.874622 
L 418.249699 60.41088 
L 416.176128 62.130362 
L 414.66946 63.38304 
L 412.153344 65.592438 
L 411.286818 66.3552 
L 408.13056 69.302021 
L 408.103481 69.32736 
L 405.119946 72.29952 
L 404.107776 73.380019 
L 402.339075 75.27168 
L 400.084992 77.871684 
L 399.76289 78.24384 
L 397.391712 81.216 
L 396.062208 83.042028 
L 395.228769 84.18816 
L 393.275125 87.16032 
L 392.039424 89.268542 
L 391.533443 90.13248 
L 390.004654 93.10464 
L 388.692238 96.0768 
L 388.01664 97.91096 
L 387.59749 99.04896 
L 386.722345 102.02112 
L 386.069906 104.99328 
L 385.642451 107.96544 
L 385.442402 110.9376 
L 385.47233 113.90976 
L 385.734973 116.88192 
L 386.233242 119.85408 
L 386.970237 122.82624 
L 387.949259 125.7984 
L 388.01664 125.96216 
L 389.17197 128.77056 
L 390.643417 131.74272 
L 392.039424 134.150023 
L 392.367142 134.71488 
L 394.345177 137.68704 
L 396.062208 139.967732 
L 396.583406 140.6592 
L 399.084134 143.63136 
L 400.084992 144.707337 
L 401.852282 146.60352 
L 404.107776 148.809736 
L 404.892696 149.57568 
L 406.780588 151.267449 
" clip-path="url(#p7ff1e4772f)" style="fill: none; stroke: #000000; stroke-width: 1.5"/>
    <path d="M 443.17675 175.214105 
L 444.335616 175.816192 
L 445.320898 176.32512 
L 448.3584 177.822371 
" clip-path="url(#p7ff1e4772f)" style="fill: none; stroke: #000000; stroke-width: 1.5"/>
   </g>
   <g id="PathCollection_10">
    <path d="M 448.3584 96.02223 
L 448.332825 96.0768 
L 447.165653 99.04896 
L 446.229213 102.02112 
L 445.525936 104.99328 
L 445.058405 107.96544 
L 444.829366 110.9376 
L 444.841743 113.90976 
L 445.098648 116.88192 
L 445.603396 119.85408 
L 446.359523 122.82624 
L 447.3708 125.7984 
L 448.3584 128.109436 
" clip-path="url(#p7ff1e4772f)" style="fill: none; stroke: #000000; stroke-width: 1.5"/>
   </g>
   <g id="PathCollection_11"/>
   <g id="PathCollection_12"/>
   <g id="line2d_29">
    <path d="M 46.08 6.912 
L 448.3584 6.912 
" clip-path="url(#p7ff1e4772f)" style="fill: none; stroke: #000000; stroke-width: 1.5; stroke-linecap: square"/>
   </g>
   <g id="patch_3">
    <path d="M 46.08 304.128 
L 46.08 6.912 
" style="fill: none; stroke: #000000; stroke-width: 0.8; stroke-linejoin: miter; stroke-linecap: square"/>
   </g>
   <g id="patch_4">
    <path d="M 448.3584 304.128 
L 448.3584 6.912 
" style="fill: none; stroke: #000000; stroke-width: 0.8; stroke-linejoin: miter; stroke-linecap: square"/>
   </g>
   <g id="patch_5">
    <path d="M 46.08 304.128 
L 448.3584 304.128 
" style="fill: none; stroke: #000000; stroke-width: 0.8; stroke-linejoin: miter; stroke-linecap: square"/>
   </g>
   <g id="patch_6">
    <path d="M 46.08 6.912 
L 448.3584 6.912 
" style="fill: none; stroke: #000000; stroke-width: 0.8; stroke-linejoin: miter; stroke-linecap: square"/>
   </g>
   <g id="text_17">
    <g clip-path="url(#p7ff1e4772f)">
     <!-- 0.875 -->
     <g transform="translate(58.036643 209.070426)rotate(-281.087327)scale(0.14 -0.14)">
      <use xlink:href="#TimesNewRomanPSMT-30"/>
      <use xlink:href="#TimesNewRomanPSMT-2e" x="50"/>
      <use xlink:href="#TimesNewRomanPSMT-38" x="75"/>
      <use xlink:href="#TimesNewRomanPSMT-37" x="125"/>
      <use xlink:href="#TimesNewRomanPSMT-35" x="175"/>
     </g>
    </g>
   </g>
   <g id="text_18">
    <g clip-path="url(#p7ff1e4772f)">
     <!-- 0.875 -->
     <g transform="translate(58.884527 34.855342)rotate(-33.2263)scale(0.14 -0.14)">
      <use xlink:href="#TimesNewRomanPSMT-30"/>
      <use xlink:href="#TimesNewRomanPSMT-2e" x="50"/>
      <use xlink:href="#TimesNewRomanPSMT-38" x="75"/>
      <use xlink:href="#TimesNewRomanPSMT-37" x="125"/>
      <use xlink:href="#TimesNewRomanPSMT-35" x="175"/>
     </g>
    </g>
   </g>
   <g id="text_19">
    <g clip-path="url(#p7ff1e4772f)">
     <!-- 0.900 -->
     <g transform="translate(124.089414 199.452435)rotate(-323.775511)scale(0.14 -0.14)">
      <use xlink:href="#TimesNewRomanPSMT-30"/>
      <use xlink:href="#TimesNewRomanPSMT-2e" x="50"/>
      <use xlink:href="#TimesNewRomanPSMT-39" x="75"/>
      <use xlink:href="#TimesNewRomanPSMT-30" x="125"/>
      <use xlink:href="#TimesNewRomanPSMT-30" x="175"/>
     </g>
    </g>
   </g>
   <g id="text_20">
    <g clip-path="url(#p7ff1e4772f)">
     <!-- 0.925 -->
     <g transform="translate(135.11014 284.485836)rotate(-2.823799)scale(0.14 -0.14)">
      <use xlink:href="#TimesNewRomanPSMT-30"/>
      <use xlink:href="#TimesNewRomanPSMT-2e" x="50"/>
      <use xlink:href="#TimesNewRomanPSMT-39" x="75"/>
      <use xlink:href="#TimesNewRomanPSMT-32" x="125"/>
      <use xlink:href="#TimesNewRomanPSMT-35" x="175"/>
     </g>
    </g>
   </g>
   <g id="text_21">
    <g clip-path="url(#p7ff1e4772f)">
     <!-- 0.950 -->
     <g transform="translate(199.372845 293.204184)rotate(-1.385367)scale(0.14 -0.14)">
      <use xlink:href="#TimesNewRomanPSMT-30"/>
      <use xlink:href="#TimesNewRomanPSMT-2e" x="50"/>
      <use xlink:href="#TimesNewRomanPSMT-39" x="75"/>
      <use xlink:href="#TimesNewRomanPSMT-35" x="125"/>
      <use xlink:href="#TimesNewRomanPSMT-30" x="175"/>
     </g>
    </g>
   </g>
   <g id="text_22">
    <g clip-path="url(#p7ff1e4772f)">
     <!-- 0.975 -->
     <g transform="translate(348.177149 299.840121)rotate(-0.779493)scale(0.14 -0.14)">
      <use xlink:href="#TimesNewRomanPSMT-30"/>
      <use xlink:href="#TimesNewRomanPSMT-2e" x="50"/>
      <use xlink:href="#TimesNewRomanPSMT-39" x="75"/>
      <use xlink:href="#TimesNewRomanPSMT-37" x="125"/>
      <use xlink:href="#TimesNewRomanPSMT-35" x="175"/>
     </g>
    </g>
   </g>
   <g id="text_23">
    <g clip-path="url(#p7ff1e4772f)">
     <!-- 0.975 -->
     <g transform="translate(317.909392 44.747484)rotate(-31.446138)scale(0.14 -0.14)">
      <use xlink:href="#TimesNewRomanPSMT-30"/>
      <use xlink:href="#TimesNewRomanPSMT-2e" x="50"/>
      <use xlink:href="#TimesNewRomanPSMT-39" x="75"/>
      <use xlink:href="#TimesNewRomanPSMT-37" x="125"/>
      <use xlink:href="#TimesNewRomanPSMT-35" x="175"/>
     </g>
    </g>
   </g>
   <g id="text_24">
    <g clip-path="url(#p7ff1e4772f)">
     <!-- 1.000 -->
     <g transform="translate(383.033467 44.512135)rotate(-30.302613)scale(0.14 -0.14)">
      <use xlink:href="#TimesNewRomanPSMT-31"/>
      <use xlink:href="#TimesNewRomanPSMT-2e" x="50"/>
      <use xlink:href="#TimesNewRomanPSMT-30" x="75"/>
      <use xlink:href="#TimesNewRomanPSMT-30" x="125"/>
      <use xlink:href="#TimesNewRomanPSMT-30" x="175"/>
     </g>
    </g>
   </g>
   <g id="text_25">
    <g clip-path="url(#p7ff1e4772f)">
     <!-- 1.025 -->
     <g transform="translate(409.221856 158.495636)rotate(-326.595744)scale(0.14 -0.14)">
      <use xlink:href="#TimesNewRomanPSMT-31"/>
      <use xlink:href="#TimesNewRomanPSMT-2e" x="50"/>
      <use xlink:href="#TimesNewRomanPSMT-30" x="75"/>
      <use xlink:href="#TimesNewRomanPSMT-32" x="125"/>
      <use xlink:href="#TimesNewRomanPSMT-35" x="175"/>
     </g>
    </g>
   </g>
   <g id="legend_1">
    <g id="patch_7">
     <path d="M 197.19545 37.906687 
L 297.24295 37.906687 
Q 300.04295 37.906687 300.04295 35.106687 
L 300.04295 16.712 
Q 300.04295 13.912 297.24295 13.912 
L 197.19545 13.912 
Q 194.39545 13.912 194.39545 16.712 
L 194.39545 35.106687 
Q 194.39545 37.906687 197.19545 37.906687 
z
" style="fill: #ffffff; opacity: 0.8; stroke: #cccccc; stroke-linejoin: miter"/>
    </g>
    <g id="line2d_30">
     <path d="M 199.99545 24.412 
L 213.99545 24.412 
L 227.99545 24.412 
" style="fill: none; stroke: #000000; stroke-width: 1.5; stroke-linecap: square"/>
    </g>
    <g id="text_26">
     <!-- BBPSSW -->
     <g transform="translate(239.19545 29.312)scale(0.14 -0.14)">
      <defs>
       <path id="TimesNewRomanPSMT-42" d="M 2956 2163 
Q 3397 2069 3616 1863 
Q 3919 1575 3919 1159 
Q 3919 844 3719 555 
Q 3519 266 3170 133 
Q 2822 0 2106 0 
L 106 0 
L 106 116 
L 266 116 
Q 531 116 647 284 
Q 719 394 719 750 
L 719 3488 
Q 719 3881 628 3984 
Q 506 4122 266 4122 
L 106 4122 
L 106 4238 
L 1938 4238 
Q 2450 4238 2759 4163 
Q 3228 4050 3475 3764 
Q 3722 3478 3722 3106 
Q 3722 2788 3528 2536 
Q 3334 2284 2956 2163 
z
M 1319 2331 
Q 1434 2309 1582 2298 
Q 1731 2288 1909 2288 
Q 2366 2288 2595 2386 
Q 2825 2484 2947 2687 
Q 3069 2891 3069 3131 
Q 3069 3503 2766 3765 
Q 2463 4028 1881 4028 
Q 1569 4028 1319 3959 
L 1319 2331 
z
M 1319 306 
Q 1681 222 2034 222 
Q 2600 222 2897 476 
Q 3194 731 3194 1106 
Q 3194 1353 3059 1581 
Q 2925 1809 2622 1940 
Q 2319 2072 1872 2072 
Q 1678 2072 1540 2065 
Q 1403 2059 1319 2044 
L 1319 306 
z
" transform="scale(0.015625)"/>
       <path id="TimesNewRomanPSMT-50" d="M 1313 1984 
L 1313 750 
Q 1313 350 1400 253 
Q 1519 116 1759 116 
L 1922 116 
L 1922 0 
L 106 0 
L 106 116 
L 266 116 
Q 534 116 650 291 
Q 713 388 713 750 
L 713 3488 
Q 713 3888 628 3984 
Q 506 4122 266 4122 
L 106 4122 
L 106 4238 
L 1659 4238 
Q 2228 4238 2556 4120 
Q 2884 4003 3109 3725 
Q 3334 3447 3334 3066 
Q 3334 2547 2992 2222 
Q 2650 1897 2025 1897 
Q 1872 1897 1694 1919 
Q 1516 1941 1313 1984 
z
M 1313 2163 
Q 1478 2131 1606 2115 
Q 1734 2100 1825 2100 
Q 2150 2100 2386 2351 
Q 2622 2603 2622 3003 
Q 2622 3278 2509 3514 
Q 2397 3750 2190 3867 
Q 1984 3984 1722 3984 
Q 1563 3984 1313 3925 
L 1313 2163 
z
" transform="scale(0.015625)"/>
       <path id="TimesNewRomanPSMT-53" d="M 2934 4334 
L 2934 2869 
L 2819 2869 
Q 2763 3291 2617 3541 
Q 2472 3791 2203 3937 
Q 1934 4084 1647 4084 
Q 1322 4084 1109 3886 
Q 897 3688 897 3434 
Q 897 3241 1031 3081 
Q 1225 2847 1953 2456 
Q 2547 2138 2764 1967 
Q 2981 1797 3098 1565 
Q 3216 1334 3216 1081 
Q 3216 600 2842 251 
Q 2469 -97 1881 -97 
Q 1697 -97 1534 -69 
Q 1438 -53 1133 45 
Q 828 144 747 144 
Q 669 144 623 97 
Q 578 50 556 -97 
L 441 -97 
L 441 1356 
L 556 1356 
Q 638 900 775 673 
Q 913 447 1195 297 
Q 1478 147 1816 147 
Q 2206 147 2432 353 
Q 2659 559 2659 841 
Q 2659 997 2573 1156 
Q 2488 1316 2306 1453 
Q 2184 1547 1640 1851 
Q 1097 2156 867 2337 
Q 638 2519 519 2737 
Q 400 2956 400 3219 
Q 400 3675 750 4004 
Q 1100 4334 1641 4334 
Q 1978 4334 2356 4169 
Q 2531 4091 2603 4091 
Q 2684 4091 2736 4139 
Q 2788 4188 2819 4334 
L 2934 4334 
z
" transform="scale(0.015625)"/>
       <path id="TimesNewRomanPSMT-57" d="M 5991 4238 
L 5991 4122 
Q 5825 4122 5722 4062 
Q 5619 4003 5525 3841 
Q 5463 3731 5328 3319 
L 4147 -97 
L 4022 -97 
L 3056 2613 
L 2097 -97 
L 1984 -97 
L 725 3422 
Q 584 3816 547 3888 
Q 484 4006 376 4064 
Q 269 4122 84 4122 
L 84 4238 
L 1653 4238 
L 1653 4122 
L 1578 4122 
Q 1413 4122 1325 4047 
Q 1238 3972 1238 3866 
Q 1238 3756 1375 3363 
L 2209 984 
L 2913 3006 
L 2788 3363 
L 2688 3647 
Q 2622 3803 2541 3922 
Q 2500 3981 2441 4022 
Q 2363 4078 2284 4103 
Q 2225 4122 2097 4122 
L 2097 4238 
L 3747 4238 
L 3747 4122 
L 3634 4122 
Q 3459 4122 3378 4047 
Q 3297 3972 3297 3844 
Q 3297 3684 3438 3288 
L 4250 984 
L 5056 3319 
Q 5194 3706 5194 3856 
Q 5194 3928 5148 3990 
Q 5103 4053 5034 4078 
Q 4916 4122 4725 4122 
L 4725 4238 
L 5991 4238 
z
" transform="scale(0.015625)"/>
      </defs>
      <use xlink:href="#TimesNewRomanPSMT-42"/>
      <use xlink:href="#TimesNewRomanPSMT-42" x="66.699219"/>
      <use xlink:href="#TimesNewRomanPSMT-50" x="133.398438"/>
      <use xlink:href="#TimesNewRomanPSMT-53" x="189.013672"/>
      <use xlink:href="#TimesNewRomanPSMT-53" x="244.628906"/>
      <use xlink:href="#TimesNewRomanPSMT-57" x="300.244141"/>
     </g>
    </g>
   </g>
  </g>
 </g>
 <defs>
  <clipPath id="p7ff1e4772f">
   <rect x="46.08" y="6.912" width="402.2784" height="297.216"/>
  </clipPath>
 </defs>
</svg>
